<svg aria-roledescription="er" role="graphics-document document" viewBox="0 0 393.8352355957031 530.03125" height="530.03125" xmlns="http://www.w3.org/2000/svg" width="393.8352355957031" id="tmpMermaidElement4242"><style>svg {background: white;}#tmpMermaidElement4242{font-family:"trebuchet ms",verdana,arial,sans-serif;font-size:16px;fill:#333;}#tmpMermaidElement4242 .error-icon{fill:#552222;}#tmpMermaidElement4242 .error-text{fill:#552222;stroke:#552222;}#tmpMermaidElement4242 .edge-thickness-normal{stroke-width:2px;}#tmpMermaidElement4242 .edge-thickness-thick{stroke-width:3.5px;}#tmpMermaidElement4242 .edge-pattern-solid{stroke-dasharray:0;}#tmpMermaidElement4242 .edge-pattern-dashed{stroke-dasharray:3;}#tmpMermaidElement4242 .edge-pattern-dotted{stroke-dasharray:2;}#tmpMermaidElement4242 .marker{fill:#333333;stroke:#333333;}#tmpMermaidElement4242 .marker.cross{stroke:#333333;}#tmpMermaidElement4242 svg{font-family:"trebuchet ms",verdana,arial,sans-serif;font-size:16px;}#tmpMermaidElement4242 .entityBox{fill:#ECECFF;stroke:#9370DB;}#tmpMermaidElement4242 .attributeBoxOdd{fill:#ffffff;stroke:#9370DB;}#tmpMermaidElement4242 .attributeBoxEven{fill:#f2f2f2;stroke:#9370DB;}#tmpMermaidElement4242 .relationshipLabelBox{fill:hsl(80, 100%, 96.2745098039%);opacity:0.7;background-color:hsl(80, 100%, 96.2745098039%);}#tmpMermaidElement4242 .relationshipLabelBox rect{opacity:0.5;}#tmpMermaidElement4242 .relationshipLine{stroke:#333333;}#tmpMermaidElement4242 .entityTitleText{text-anchor:middle;font-size:18px;fill:#333;}#tmpMermaidElement4242 #MD_PARENT_START{fill:#f5f5f5!important;stroke:#333333!important;stroke-width:1;}#tmpMermaidElement4242 #MD_PARENT_END{fill:#f5f5f5!important;stroke:#333333!important;stroke-width:1;}#tmpMermaidElement4242 :root{--mermaid-font-family:"trebuchet ms",verdana,arial,sans-serif;}</style><g></g><defs><marker orient="auto" markerHeight="240" markerWidth="190" refY="7" refX="0" id="MD_PARENT_START"><path d="M 18,7 L9,13 L1,7 L9,1 Z"></path></marker></defs><defs><marker orient="auto" markerHeight="28" markerWidth="20" refY="7" refX="19" id="MD_PARENT_END"><path d="M 18,7 L9,13 L1,7 L9,1 Z"></path></marker></defs><defs><marker orient="auto" markerHeight="18" markerWidth="18" refY="9" refX="0" id="ONLY_ONE_START"><path d="M9,0 L9,18 M15,0 L15,18" fill="none" stroke="gray"></path></marker></defs><defs><marker orient="auto" markerHeight="18" markerWidth="18" refY="9" refX="18" id="ONLY_ONE_END"><path d="M3,0 L3,18 M9,0 L9,18" fill="none" stroke="gray"></path></marker></defs><defs><marker orient="auto" markerHeight="18" markerWidth="30" refY="9" refX="0" id="ZERO_OR_ONE_START"><circle r="6" cy="9" cx="21" fill="white" stroke="gray"></circle><path d="M9,0 L9,18" fill="none" stroke="gray"></path></marker></defs><defs><marker orient="auto" markerHeight="18" markerWidth="30" refY="9" refX="30" id="ZERO_OR_ONE_END"><circle r="6" cy="9" cx="9" fill="white" stroke="gray"></circle><path d="M21,0 L21,18" fill="none" stroke="gray"></path></marker></defs><defs><marker orient="auto" markerHeight="36" markerWidth="45" refY="18" refX="18" id="ONE_OR_MORE_START"><path d="M0,18 Q 18,0 36,18 Q 18,36 0,18 M42,9 L42,27" fill="none" stroke="gray"></path></marker></defs><defs><marker orient="auto" markerHeight="36" markerWidth="45" refY="18" refX="27" id="ONE_OR_MORE_END"><path d="M3,9 L3,27 M9,18 Q27,0 45,18 Q27,36 9,18" fill="none" stroke="gray"></path></marker></defs><defs><marker orient="auto" markerHeight="36" markerWidth="57" refY="18" refX="18" id="ZERO_OR_MORE_START"><circle r="6" cy="18" cx="48" fill="white" stroke="gray"></circle><path d="M0,18 Q18,0 36,18 Q18,36 0,18" fill="none" stroke="gray"></path></marker></defs><defs><marker orient="auto" markerHeight="36" markerWidth="57" refY="18" refX="39" id="ZERO_OR_MORE_END"><circle r="6" cy="18" cx="9" fill="white" stroke="gray"></circle><path d="M21,18 Q39,0 57,18 Q39,36 21,18" fill="none" stroke="gray"></path></marker></defs><path style="stroke: gray; fill: none;" marker-start="url(#ONLY_ONE_START)" marker-end="url(#ZERO_OR_MORE_END)" d="M80.776,167.016L80.776,179.349C80.776,191.682,80.776,216.349,86.704,237.016C92.631,257.682,104.487,274.349,110.414,282.682L116.342,291.016" class="er relationshipLine"></path><path style="stroke: gray; fill: none;" marker-start="url(#ONLY_ONE_START)" marker-end="url(#ZERO_OR_MORE_END)" d="M307.694,191.016L307.694,199.349C307.694,207.682,307.694,224.349,301.766,241.016C295.839,257.682,283.984,274.349,278.056,282.682L272.129,291.016" class="er relationshipLine"></path><g transform="translate(20,44 )" id="entity-UserAccount-3aed1661-92e1-55c4-9695-8fb7df3397e5"><rect height="123.015625" width="121.55276489257812" y="0" x="0" class="er entityBox"></rect><text style="dominant-baseline: middle; text-anchor: middle; font-size: 12px;" transform="translate(60.77638244628906,13.5078125)" y="0" x="0" id="text-entity-UserAccount-3aed1661-92e1-55c4-9695-8fb7df3397e5" class="er entityLabel">UserAccount</text><rect height="24" width="48.703125" y="27.015625" x="0" class="er attributeBoxOdd"></rect><text style="dominant-baseline: middle; font-size: 10.2px;" transform="translate(5,39.015625)" y="0" x="0" id="text-entity-UserAccount-3aed1661-92e1-55c4-9695-8fb7df3397e5-attr-1-type" class="er entityLabel">string</text><rect height="24" width="49.721221923828125" y="27.015625" x="48.703125" class="er attributeBoxOdd"></rect><text style="dominant-baseline: middle; font-size: 10.2px;" transform="translate(53.703125,39.015625)" y="0" x="0" id="text-entity-UserAccount-3aed1661-92e1-55c4-9695-8fb7df3397e5-attr-1-name" class="er entityLabel">email</text><rect height="24" width="23.12841796875" y="27.015625" x="98.42434692382812" class="er attributeBoxOdd"></rect><text style="dominant-baseline: middle; font-size: 10.2px;" transform="translate(103.42434692382812,39.015625)" y="0" x="0" id="text-entity-UserAccount-3aed1661-92e1-55c4-9695-8fb7df3397e5-attr-1-key" class="er entityLabel">PK</text><rect height="24" width="48.703125" y="51.015625" x="0" class="er attributeBoxEven"></rect><text style="dominant-baseline: middle; font-size: 10.2px;" transform="translate(5,63.015625)" y="0" x="0" id="text-entity-UserAccount-3aed1661-92e1-55c4-9695-8fb7df3397e5-attr-2-type" class="er entityLabel">string</text><rect height="24" width="49.721221923828125" y="51.015625" x="48.703125" class="er attributeBoxEven"></rect><text style="dominant-baseline: middle; font-size: 10.2px;" transform="translate(53.703125,63.015625)" y="0" x="0" id="text-entity-UserAccount-3aed1661-92e1-55c4-9695-8fb7df3397e5-attr-2-name" class="er entityLabel">name</text><rect height="24" width="23.12841796875" y="51.015625" x="98.42434692382812" class="er attributeBoxEven"></rect><text style="dominant-baseline: middle; font-size: 10.2px;" transform="translate(103.42434692382812,63.015625)" y="0" x="0" id="text-entity-UserAccount-3aed1661-92e1-55c4-9695-8fb7df3397e5-attr-2-key" class="er entityLabel"></text><rect height="24" width="48.703125" y="75.015625" x="0" class="er attributeBoxOdd"></rect><text style="dominant-baseline: middle; font-size: 10.2px;" transform="translate(5,87.015625)" y="0" x="0" id="text-entity-UserAccount-3aed1661-92e1-55c4-9695-8fb7df3397e5-attr-3-type" class="er entityLabel">boolean</text><rect height="24" width="49.721221923828125" y="75.015625" x="48.703125" class="er attributeBoxOdd"></rect><text style="dominant-baseline: middle; font-size: 10.2px;" transform="translate(53.703125,87.015625)" y="0" x="0" id="text-entity-UserAccount-3aed1661-92e1-55c4-9695-8fb7df3397e5-attr-3-name" class="er entityLabel">is_active</text><rect height="24" width="23.12841796875" y="75.015625" x="98.42434692382812" class="er attributeBoxOdd"></rect><text style="dominant-baseline: middle; font-size: 10.2px;" transform="translate(103.42434692382812,87.015625)" y="0" x="0" id="text-entity-UserAccount-3aed1661-92e1-55c4-9695-8fb7df3397e5-attr-3-key" class="er entityLabel"></text><rect height="24" width="48.703125" y="99.015625" x="0" class="er attributeBoxEven"></rect><text style="dominant-baseline: middle; font-size: 10.2px;" transform="translate(5,111.015625)" y="0" x="0" id="text-entity-UserAccount-3aed1661-92e1-55c4-9695-8fb7df3397e5-attr-4-type" class="er entityLabel">boolean</text><rect height="24" width="49.721221923828125" y="99.015625" x="48.703125" class="er attributeBoxEven"></rect><text style="dominant-baseline: middle; font-size: 10.2px;" transform="translate(53.703125,111.015625)" y="0" x="0" id="text-entity-UserAccount-3aed1661-92e1-55c4-9695-8fb7df3397e5-attr-4-name" class="er entityLabel">is_staff</text><rect height="24" width="23.12841796875" y="99.015625" x="98.42434692382812" class="er attributeBoxEven"></rect><text style="dominant-baseline: middle; font-size: 10.2px;" transform="translate(103.42434692382812,111.015625)" y="0" x="0" id="text-entity-UserAccount-3aed1661-92e1-55c4-9695-8fb7df3397e5-attr-4-key" class="er entityLabel"></text></g><g transform="translate(115.77350616455078,291.015625 )" id="entity-Task-48d7b74a-e47a-5efe-8103-e90c35d0bbcd"><rect height="219.015625" width="156.92337036132812" y="0" x="0" class="er entityBox"></rect><text style="dominant-baseline: middle; text-anchor: middle; font-size: 12px;" transform="translate(78.46168518066406,13.5078125)" y="0" x="0" id="text-entity-Task-48d7b74a-e47a-5efe-8103-e90c35d0bbcd" class="er entityLabel">Task</text><rect height="24" width="69.71304321289062" y="27.015625" x="0" class="er attributeBoxOdd"></rect><text style="dominant-baseline: middle; font-size: 10.2px;" transform="translate(5,39.015625)" y="0" x="0" id="text-entity-Task-48d7b74a-e47a-5efe-8103-e90c35d0bbcd-attr-1-type" class="er entityLabel">int</text><rect height="24" width="64.0819091796875" y="27.015625" x="69.71304321289062" class="er attributeBoxOdd"></rect><text style="dominant-baseline: middle; font-size: 10.2px;" transform="translate(74.71304321289062,39.015625)" y="0" x="0" id="text-entity-Task-48d7b74a-e47a-5efe-8103-e90c35d0bbcd-attr-1-name" class="er entityLabel">id</text><rect height="24" width="23.12841796875" y="27.015625" x="133.79495239257812" class="er attributeBoxOdd"></rect><text style="dominant-baseline: middle; font-size: 10.2px;" transform="translate(138.79495239257812,39.015625)" y="0" x="0" id="text-entity-Task-48d7b74a-e47a-5efe-8103-e90c35d0bbcd-attr-1-key" class="er entityLabel">PK</text><rect height="24" width="69.71304321289062" y="51.015625" x="0" class="er attributeBoxEven"></rect><text style="dominant-baseline: middle; font-size: 10.2px;" transform="translate(5,63.015625)" y="0" x="0" id="text-entity-Task-48d7b74a-e47a-5efe-8103-e90c35d0bbcd-attr-2-type" class="er entityLabel">string</text><rect height="24" width="64.0819091796875" y="51.015625" x="69.71304321289062" class="er attributeBoxEven"></rect><text style="dominant-baseline: middle; font-size: 10.2px;" transform="translate(74.71304321289062,63.015625)" y="0" x="0" id="text-entity-Task-48d7b74a-e47a-5efe-8103-e90c35d0bbcd-attr-2-name" class="er entityLabel">title</text><rect height="24" width="23.12841796875" y="51.015625" x="133.79495239257812" class="er attributeBoxEven"></rect><text style="dominant-baseline: middle; font-size: 10.2px;" transform="translate(138.79495239257812,63.015625)" y="0" x="0" id="text-entity-Task-48d7b74a-e47a-5efe-8103-e90c35d0bbcd-attr-2-key" class="er entityLabel"></text><rect height="24" width="69.71304321289062" y="75.015625" x="0" class="er attributeBoxOdd"></rect><text style="dominant-baseline: middle; font-size: 10.2px;" transform="translate(5,87.015625)" y="0" x="0" id="text-entity-Task-48d7b74a-e47a-5efe-8103-e90c35d0bbcd-attr-3-type" class="er entityLabel">string</text><rect height="24" width="64.0819091796875" y="75.015625" x="69.71304321289062" class="er attributeBoxOdd"></rect><text style="dominant-baseline: middle; font-size: 10.2px;" transform="translate(74.71304321289062,87.015625)" y="0" x="0" id="text-entity-Task-48d7b74a-e47a-5efe-8103-e90c35d0bbcd-attr-3-name" class="er entityLabel">description</text><rect height="24" width="23.12841796875" y="75.015625" x="133.79495239257812" class="er attributeBoxOdd"></rect><text style="dominant-baseline: middle; font-size: 10.2px;" transform="translate(138.79495239257812,87.015625)" y="0" x="0" id="text-entity-Task-48d7b74a-e47a-5efe-8103-e90c35d0bbcd-attr-3-key" class="er entityLabel"></text><rect height="24" width="69.71304321289062" y="99.015625" x="0" class="er attributeBoxEven"></rect><text style="dominant-baseline: middle; font-size: 10.2px;" transform="translate(5,111.015625)" y="0" x="0" id="text-entity-Task-48d7b74a-e47a-5efe-8103-e90c35d0bbcd-attr-4-type" class="er entityLabel">date</text><rect height="24" width="64.0819091796875" y="99.015625" x="69.71304321289062" class="er attributeBoxEven"></rect><text style="dominant-baseline: middle; font-size: 10.2px;" transform="translate(74.71304321289062,111.015625)" y="0" x="0" id="text-entity-Task-48d7b74a-e47a-5efe-8103-e90c35d0bbcd-attr-4-name" class="er entityLabel">due_date</text><rect height="24" width="23.12841796875" y="99.015625" x="133.79495239257812" class="er attributeBoxEven"></rect><text style="dominant-baseline: middle; font-size: 10.2px;" transform="translate(138.79495239257812,111.015625)" y="0" x="0" id="text-entity-Task-48d7b74a-e47a-5efe-8103-e90c35d0bbcd-attr-4-key" class="er entityLabel"></text><rect height="24" width="69.71304321289062" y="123.015625" x="0" class="er attributeBoxOdd"></rect><text style="dominant-baseline: middle; font-size: 10.2px;" transform="translate(5,135.015625)" y="0" x="0" id="text-entity-Task-48d7b74a-e47a-5efe-8103-e90c35d0bbcd-attr-5-type" class="er entityLabel">boolean</text><rect height="24" width="64.0819091796875" y="123.015625" x="69.71304321289062" class="er attributeBoxOdd"></rect><text style="dominant-baseline: middle; font-size: 10.2px;" transform="translate(74.71304321289062,135.015625)" y="0" x="0" id="text-entity-Task-48d7b74a-e47a-5efe-8103-e90c35d0bbcd-attr-5-name" class="er entityLabel">completed</text><rect height="24" width="23.12841796875" y="123.015625" x="133.79495239257812" class="er attributeBoxOdd"></rect><text style="dominant-baseline: middle; font-size: 10.2px;" transform="translate(138.79495239257812,135.015625)" y="0" x="0" id="text-entity-Task-48d7b74a-e47a-5efe-8103-e90c35d0bbcd-attr-5-key" class="er entityLabel"></text><rect height="24" width="69.71304321289062" y="147.015625" x="0" class="er attributeBoxEven"></rect><text style="dominant-baseline: middle; font-size: 10.2px;" transform="translate(5,159.015625)" y="0" x="0" id="text-entity-Task-48d7b74a-e47a-5efe-8103-e90c35d0bbcd-attr-6-type" class="er entityLabel">datetime</text><rect height="24" width="64.0819091796875" y="147.015625" x="69.71304321289062" class="er attributeBoxEven"></rect><text style="dominant-baseline: middle; font-size: 10.2px;" transform="translate(74.71304321289062,159.015625)" y="0" x="0" id="text-entity-Task-48d7b74a-e47a-5efe-8103-e90c35d0bbcd-attr-6-name" class="er entityLabel">created_at</text><rect height="24" width="23.12841796875" y="147.015625" x="133.79495239257812" class="er attributeBoxEven"></rect><text style="dominant-baseline: middle; font-size: 10.2px;" transform="translate(138.79495239257812,159.015625)" y="0" x="0" id="text-entity-Task-48d7b74a-e47a-5efe-8103-e90c35d0bbcd-attr-6-key" class="er entityLabel"></text><rect height="24" width="69.71304321289062" y="171.015625" x="0" class="er attributeBoxOdd"></rect><text style="dominant-baseline: middle; font-size: 10.2px;" transform="translate(5,183.015625)" y="0" x="0" id="text-entity-Task-48d7b74a-e47a-5efe-8103-e90c35d0bbcd-attr-7-type" class="er entityLabel">datetime</text><rect height="24" width="64.0819091796875" y="171.015625" x="69.71304321289062" class="er attributeBoxOdd"></rect><text style="dominant-baseline: middle; font-size: 10.2px;" transform="translate(74.71304321289062,183.015625)" y="0" x="0" id="text-entity-Task-48d7b74a-e47a-5efe-8103-e90c35d0bbcd-attr-7-name" class="er entityLabel">updated_at</text><rect height="24" width="23.12841796875" y="171.015625" x="133.79495239257812" class="er attributeBoxOdd"></rect><text style="dominant-baseline: middle; font-size: 10.2px;" transform="translate(138.79495239257812,183.015625)" y="0" x="0" id="text-entity-Task-48d7b74a-e47a-5efe-8103-e90c35d0bbcd-attr-7-key" class="er entityLabel"></text><rect height="24" width="69.71304321289062" y="195.015625" x="0" class="er attributeBoxEven"></rect><text style="dominant-baseline: middle; font-size: 10.2px;" transform="translate(5,207.015625)" y="0" x="0" id="text-entity-Task-48d7b74a-e47a-5efe-8103-e90c35d0bbcd-attr-8-type" class="er entityLabel">CustomUser</text><rect height="24" width="64.0819091796875" y="195.015625" x="69.71304321289062" class="er attributeBoxEven"></rect><text style="dominant-baseline: middle; font-size: 10.2px;" transform="translate(74.71304321289062,207.015625)" y="0" x="0" id="text-entity-Task-48d7b74a-e47a-5efe-8103-e90c35d0bbcd-attr-8-name" class="er entityLabel">user</text><rect height="24" width="23.12841796875" y="195.015625" x="133.79495239257812" class="er attributeBoxEven"></rect><text style="dominant-baseline: middle; font-size: 10.2px;" transform="translate(138.79495239257812,207.015625)" y="0" x="0" id="text-entity-Task-48d7b74a-e47a-5efe-8103-e90c35d0bbcd-attr-8-key" class="er entityLabel">FK</text></g><g transform="translate(241.55276489257812,20 )" id="entity-CustomUser-9fac88fe-42de-56ac-97b8-14ae4c70e2c3"><rect height="171.015625" width="132.282470703125" y="0" x="0" class="er entityBox"></rect><text style="dominant-baseline: middle; text-anchor: middle; font-size: 12px;" transform="translate(66.1412353515625,13.5078125)" y="0" x="0" id="text-entity-CustomUser-9fac88fe-42de-56ac-97b8-14ae4c70e2c3" class="er entityLabel">CustomUser</text><rect height="24" width="48.703125" y="27.015625" x="0" class="er attributeBoxOdd"></rect><text style="dominant-baseline: middle; font-size: 10.2px;" transform="translate(5,39.015625)" y="0" x="0" id="text-entity-CustomUser-9fac88fe-42de-56ac-97b8-14ae4c70e2c3-attr-1-type" class="er entityLabel">string</text><rect height="24" width="60.450927734375" y="27.015625" x="48.703125" class="er attributeBoxOdd"></rect><text style="dominant-baseline: middle; font-size: 10.2px;" transform="translate(53.703125,39.015625)" y="0" x="0" id="text-entity-CustomUser-9fac88fe-42de-56ac-97b8-14ae4c70e2c3-attr-1-name" class="er entityLabel">username</text><rect height="24" width="23.12841796875" y="27.015625" x="109.154052734375" class="er attributeBoxOdd"></rect><text style="dominant-baseline: middle; font-size: 10.2px;" transform="translate(114.154052734375,39.015625)" y="0" x="0" id="text-entity-CustomUser-9fac88fe-42de-56ac-97b8-14ae4c70e2c3-attr-1-key" class="er entityLabel">PK</text><rect height="24" width="48.703125" y="51.015625" x="0" class="er attributeBoxEven"></rect><text style="dominant-baseline: middle; font-size: 10.2px;" transform="translate(5,63.015625)" y="0" x="0" id="text-entity-CustomUser-9fac88fe-42de-56ac-97b8-14ae4c70e2c3-attr-2-type" class="er entityLabel">string</text><rect height="24" width="60.450927734375" y="51.015625" x="48.703125" class="er attributeBoxEven"></rect><text style="dominant-baseline: middle; font-size: 10.2px;" transform="translate(53.703125,63.015625)" y="0" x="0" id="text-entity-CustomUser-9fac88fe-42de-56ac-97b8-14ae4c70e2c3-attr-2-name" class="er entityLabel">email</text><rect height="24" width="23.12841796875" y="51.015625" x="109.154052734375" class="er attributeBoxEven"></rect><text style="dominant-baseline: middle; font-size: 10.2px;" transform="translate(114.154052734375,63.015625)" y="0" x="0" id="text-entity-CustomUser-9fac88fe-42de-56ac-97b8-14ae4c70e2c3-attr-2-key" class="er entityLabel"></text><rect height="24" width="48.703125" y="75.015625" x="0" class="er attributeBoxOdd"></rect><text style="dominant-baseline: middle; font-size: 10.2px;" transform="translate(5,87.015625)" y="0" x="0" id="text-entity-CustomUser-9fac88fe-42de-56ac-97b8-14ae4c70e2c3-attr-3-type" class="er entityLabel">string</text><rect height="24" width="60.450927734375" y="75.015625" x="48.703125" class="er attributeBoxOdd"></rect><text style="dominant-baseline: middle; font-size: 10.2px;" transform="translate(53.703125,87.015625)" y="0" x="0" id="text-entity-CustomUser-9fac88fe-42de-56ac-97b8-14ae4c70e2c3-attr-3-name" class="er entityLabel">first_name</text><rect height="24" width="23.12841796875" y="75.015625" x="109.154052734375" class="er attributeBoxOdd"></rect><text style="dominant-baseline: middle; font-size: 10.2px;" transform="translate(114.154052734375,87.015625)" y="0" x="0" id="text-entity-CustomUser-9fac88fe-42de-56ac-97b8-14ae4c70e2c3-attr-3-key" class="er entityLabel"></text><rect height="24" width="48.703125" y="99.015625" x="0" class="er attributeBoxEven"></rect><text style="dominant-baseline: middle; font-size: 10.2px;" transform="translate(5,111.015625)" y="0" x="0" id="text-entity-CustomUser-9fac88fe-42de-56ac-97b8-14ae4c70e2c3-attr-4-type" class="er entityLabel">string</text><rect height="24" width="60.450927734375" y="99.015625" x="48.703125" class="er attributeBoxEven"></rect><text style="dominant-baseline: middle; font-size: 10.2px;" transform="translate(53.703125,111.015625)" y="0" x="0" id="text-entity-CustomUser-9fac88fe-42de-56ac-97b8-14ae4c70e2c3-attr-4-name" class="er entityLabel">last_name</text><rect height="24" width="23.12841796875" y="99.015625" x="109.154052734375" class="er attributeBoxEven"></rect><text style="dominant-baseline: middle; font-size: 10.2px;" transform="translate(114.154052734375,111.015625)" y="0" x="0" id="text-entity-CustomUser-9fac88fe-42de-56ac-97b8-14ae4c70e2c3-attr-4-key" class="er entityLabel"></text><rect height="24" width="48.703125" y="123.015625" x="0" class="er attributeBoxOdd"></rect><text style="dominant-baseline: middle; font-size: 10.2px;" transform="translate(5,135.015625)" y="0" x="0" id="text-entity-CustomUser-9fac88fe-42de-56ac-97b8-14ae4c70e2c3-attr-5-type" class="er entityLabel">boolean</text><rect height="24" width="60.450927734375" y="123.015625" x="48.703125" class="er attributeBoxOdd"></rect><text style="dominant-baseline: middle; font-size: 10.2px;" transform="translate(53.703125,135.015625)" y="0" x="0" id="text-entity-CustomUser-9fac88fe-42de-56ac-97b8-14ae4c70e2c3-attr-5-name" class="er entityLabel">is_staff</text><rect height="24" width="23.12841796875" y="123.015625" x="109.154052734375" class="er attributeBoxOdd"></rect><text style="dominant-baseline: middle; font-size: 10.2px;" transform="translate(114.154052734375,135.015625)" y="0" x="0" id="text-entity-CustomUser-9fac88fe-42de-56ac-97b8-14ae4c70e2c3-attr-5-key" class="er entityLabel"></text><rect height="24" width="48.703125" y="147.015625" x="0" class="er attributeBoxEven"></rect><text style="dominant-baseline: middle; font-size: 10.2px;" transform="translate(5,159.015625)" y="0" x="0" id="text-entity-CustomUser-9fac88fe-42de-56ac-97b8-14ae4c70e2c3-attr-6-type" class="er entityLabel">boolean</text><rect height="24" width="60.450927734375" y="147.015625" x="48.703125" class="er attributeBoxEven"></rect><text style="dominant-baseline: middle; font-size: 10.2px;" transform="translate(53.703125,159.015625)" y="0" x="0" id="text-entity-CustomUser-9fac88fe-42de-56ac-97b8-14ae4c70e2c3-attr-6-name" class="er entityLabel">is_active</text><rect height="24" width="23.12841796875" y="147.015625" x="109.154052734375" class="er attributeBoxEven"></rect><text style="dominant-baseline: middle; font-size: 10.2px;" transform="translate(114.154052734375,159.015625)" y="0" x="0" id="text-entity-CustomUser-9fac88fe-42de-56ac-97b8-14ae4c70e2c3-attr-6-key" class="er entityLabel"></text></g><rect height="17.015625" width="20.02734375" y="224.37728881835938" x="75.59477233886719" class="er relationshipLabelBox"></rect><text style="text-anchor: middle; dominant-baseline: middle; font-size: 12px;" y="232.88510131835938" x="85.60844421386719" id="rel46" class="er relationshipLabel">has</text><rect height="17.015625" width="20.02734375" y="236.09715270996094" x="290.3872985839844" class="er relationshipLabelBox"></rect><text style="text-anchor: middle; dominant-baseline: middle; font-size: 12px;" y="244.60496520996094" x="300.4009704589844" id="rel47" class="er relationshipLabel">has</text></svg>